<svg xmlns="http://www.w3.org/2000/svg" width="40" height="46" fill="none" viewBox="0 0 40 46"><path fill="url(#paint0_linear_4222_143926)" d="M18 1.1547C19.2376 0.440169 20.7624 0.440169 22 1.1547L37.9186 10.3453C39.1562 11.0598 39.9186 12.3803 39.9186 13.8094V32.1906C39.9186 33.6197 39.1562 34.9402 37.9186 35.6547L22 44.8453C20.7624 45.5598 19.2376 45.5598 18 44.8453L2.08142 35.6547C0.843811 34.9402 0.0814152 33.6197 0.0814152 32.1906V13.8094C0.0814152 12.3803 0.843811 11.0598 2.08142 10.3453L18 1.1547Z"/><g clip-path="url(#clip0_4222_143926)"><path fill="#fff" d="M29 23.5C29 28.7467 24.7467 33 19.5 33C14.2533 33 10 28.7467 10 23.5C10 18.2533 14.2533 14 19.5 14C24.7467 14 29 18.2533 29 23.5Z"/><circle cx="17.986" cy="32.174" r="11.014" fill="url(#paint1_linear_4222_143926)"/><g filter="url(#filter0_d_4222_143926)"><circle cx="25.007" cy="29.971" r="11.014" fill="url(#paint2_linear_4222_143926)"/></g><circle cx="19.5" cy="36.029" r="11.014" fill="url(#paint3_linear_4222_143926)"/><g filter="url(#filter1_d_4222_143926)"><circle cx="29.826" cy="32.174" r="11.014" fill="url(#paint4_linear_4222_143926)"/></g></g><defs><filter id="filter0_d_4222_143926" width="27.002" height="27.002" x="11.506" y="17.465" color-interpolation-filters="sRGB" filterUnits="userSpaceOnUse"><feFlood flood-opacity="0" result="BackgroundImageFix"/><feColorMatrix in="SourceAlpha" result="hardAlpha" type="matrix" values="0 0 0 0 0 0 0 0 0 0 0 0 0 0 0 0 0 0 127 0"/><feOffset dy=".995"/><feGaussianBlur stdDeviation="1.243"/><feComposite in2="hardAlpha" operator="out"/><feColorMatrix type="matrix" values="0 0 0 0 0 0 0 0 0 0 0 0 0 0 0 0 0 0 0.1 0"/><feBlend in2="BackgroundImageFix" mode="normal" result="effect1_dropShadow_4222_143926"/><feBlend in="SourceGraphic" in2="effect1_dropShadow_4222_143926" mode="normal" result="shape"/></filter><filter id="filter1_d_4222_143926" width="27.002" height="27.002" x="16.325" y="19.668" color-interpolation-filters="sRGB" filterUnits="userSpaceOnUse"><feFlood flood-opacity="0" result="BackgroundImageFix"/><feColorMatrix in="SourceAlpha" result="hardAlpha" type="matrix" values="0 0 0 0 0 0 0 0 0 0 0 0 0 0 0 0 0 0 127 0"/><feOffset dy=".995"/><feGaussianBlur stdDeviation="1.243"/><feComposite in2="hardAlpha" operator="out"/><feColorMatrix type="matrix" values="0 0 0 0 0 0 0 0 0 0 0 0 0 0 0 0 0 0 0.1 0"/><feBlend in2="BackgroundImageFix" mode="normal" result="effect1_dropShadow_4222_143926"/><feBlend in="SourceGraphic" in2="effect1_dropShadow_4222_143926" mode="normal" result="shape"/></filter><linearGradient id="paint0_linear_4222_143926" x1="20" x2="20" y1="-.718" y2="46.718" gradientUnits="userSpaceOnUse"><stop/><stop offset="1" stop-color="#2D3749"/></linearGradient><linearGradient id="paint1_linear_4222_143926" x1="8.708" x2="19.01" y1="25.421" y2="30.349" gradientUnits="userSpaceOnUse"><stop stop-color="#30FFB4"/><stop offset="1" stop-color="#00B68A"/></linearGradient><linearGradient id="paint2_linear_4222_143926" x1="16.462" x2="27.429" y1="24.722" y2="29.996" gradientUnits="userSpaceOnUse"><stop stop-color="#FFE353"/><stop offset="1" stop-color="#01E887"/></linearGradient><linearGradient id="paint3_linear_4222_143926" x1="13.304" x2="20.362" y1="30.591" y2="32.636" gradientUnits="userSpaceOnUse"><stop stop-color="#30FFB4"/><stop offset="1" stop-color="#00B68A"/></linearGradient><linearGradient id="paint4_linear_4222_143926" x1="20.961" x2="29.826" y1="27.763" y2="31.692" gradientUnits="userSpaceOnUse"><stop stop-color="#FFE353"/><stop offset="1" stop-color="#01E887"/></linearGradient><clipPath id="clip0_4222_143926"><rect width="19" height="19" x="10" y="14" fill="#fff" rx="9.5"/></clipPath></defs></svg>