<svg width="80" height="157" viewBox="0 0 512 157" fill="none" xmlns="http://www.w3.org/2000/svg">
    <path
        d="M66.2053 83.2479C66.2053 70.069 55.7733 60.0824 43.4525 60.0824C30.7209 60.0824 20.1245 70.069 20.1245 83.2479C20.1245 96.1812 30.7209 106.25 43.3703 106.25C55.7733 106.25 66.2053 96.1812 66.2053 83.2479ZM87.2326 83.3298C87.2326 108.051 69.9839 126.632 47.2311 126.632C36.5526 126.632 27.2709 122.375 20.7819 114.844L20.864 154.381C20.864 156.018 19.878 157 18.4001 157H2.71044C1.06819 157 0 156.018 0 154.381V44.0387C0 42.484 1.06819 41.4195 2.62938 41.4195H11.7467C13.0603 41.4195 13.9641 42.1565 14.5393 43.2199L18.0714 54.926C24.7248 45.267 34.9925 39.6181 47.3133 39.6181C69.9839 39.6181 87.2326 58.1183 87.2326 83.3298"
        fill="#FAFAFA" />
    <path
        d="M173.458 75.2261V122.047C173.458 123.685 172.472 124.586 170.83 124.586H155.223C153.58 124.586 152.594 123.685 152.594 122.047V76.4532C152.594 65.8127 147.009 58.3635 135.755 58.3635C124.667 58.3635 117.52 66.7942 117.52 76.7808V122.13C117.52 123.685 116.534 124.586 114.974 124.586H99.1213C97.4779 124.586 96.6562 123.685 96.6562 122.13V2.45548C96.6562 0.818901 97.4779 6.62354e-05 99.1213 6.62354e-05H114.974C116.534 6.62354e-05 117.52 0.818901 117.52 2.45548V51.7331C123.024 44.3657 132.06 39.4549 142.081 39.4549C161.548 39.4549 173.458 53.207 173.458 75.2261Z"
        fill="#FAFAFA" />
    <path
        d="M249.904 83.2481C249.904 70.1511 239.308 60.0827 226.658 60.0827C214.255 60.0827 203.905 70.1511 203.905 83.2481C203.905 96.1814 214.337 106.25 226.74 106.25C239.39 106.25 249.904 96.1814 249.904 83.2481ZM269.7 44.2846V122.212C269.7 123.767 268.632 124.831 267.07 124.831H257.954C256.639 124.831 255.653 124.095 255.16 123.031L251.793 111.816C245.139 121.147 234.954 126.632 222.879 126.632C200.127 126.632 182.877 108.051 182.877 83.33C182.877 58.1186 200.045 39.6183 222.797 39.6183C234.872 39.6183 245.139 45.1034 251.793 54.5987L255.16 43.3839C255.653 42.3205 256.639 41.5835 257.954 41.5835H267.07C268.632 41.5835 269.7 42.648 269.7 44.2846"
        fill="#FAFAFA" />
    <path
        d="M361.056 44.1209L323.353 123.193C322.533 124.831 321.547 125.65 319.658 125.65H319.083C317.194 125.65 316.208 124.831 315.387 123.193L277.685 44.1209C276.699 42.0738 278.012 40.6829 279.573 40.6829H297.316C298.876 40.6829 300.191 41.6655 300.766 43.0564L319.329 87.0138L337.893 43.0564C338.468 41.6655 339.865 40.6829 341.425 40.6829H359.168C360.728 40.6829 362.042 42.0738 361.056 44.1209Z"
        fill="#FAFAFA" />
    <path
        d="M376.647 75.2097L377.066 73.8531C379.991 64.401 388.615 58.0528 398.524 58.0528C409.03 58.0528 417.92 64.4098 420.645 73.873L421.03 75.2097H376.647ZM399.017 40.6657C375.332 40.6657 356.78 59.3707 356.78 83.2476C356.78 107.034 375.801 125.666 400.084 125.666C409.292 125.666 421.915 121.204 428.819 115.51C429.535 114.848 429.644 113.7 429.036 112.819L420.686 101.891C420.044 101.092 418.897 100.908 418.155 101.502C413.043 105.237 405.539 108.034 400.659 108.034C389.981 108.034 380.606 102.167 377.331 93.4377L376.804 92.0225H429.654C435.213 92.0225 439.364 85.2283 439.364 79.1545C439.364 57.5725 421.641 40.6657 399.017 40.6657"
        fill="#FAFAFA" />
    <path
        d="M511.562 49.036C511.535 48.9851 511.499 48.9452 511.47 48.8966C511.397 48.8058 511.338 48.714 511.255 48.6343C511.15 48.5059 511.069 48.3599 510.944 48.2548C505.275 43.5885 497.636 40.5599 491.066 40.5599C481.209 40.5599 471.187 46.8627 465.848 56.1942L462.235 44.2435C461.659 43.1802 460.756 42.4432 459.441 42.4432H450.324C448.762 42.4432 447.695 43.5066 447.695 45.1432V123.153C447.695 124.79 448.598 125.691 450.241 125.691H466.012C467.573 125.691 468.558 124.79 468.558 123.153V80.0966C468.558 68.4724 477.102 58.5688 488.518 58.5688C492.215 58.5688 496.896 60.6148 500.676 63.7253C500.78 63.8161 500.89 63.8393 500.997 63.9123C501.708 64.8252 502.989 65.2512 504.047 64.6216C505.216 63.9267 506.208 63.016 507.082 61.9825C507.992 60.9081 508.916 59.8048 509.689 58.6275C511.313 56.1499 511.754 53.253 511.995 50.3616C512.035 49.8847 511.84 49.4332 511.562 49.036Z"
        fill="#FAFAFA" />
</svg>